<svg
    width="43"
    height="43"
    viewBox="0 0 43 43"
    fill="none"
    xmlns="http://www.w3.org/2000/svg"
>
    <g clipPath="url(#clip0_47_80)">
    <path
        d="M21.5 0C17.2477 0 13.0909 1.26095 9.55525 3.6234C6.01959 5.98585 3.26388 9.3437 1.6366 13.2723C0.00931565 17.2009 -0.416456 21.5239 0.413126 25.6944C1.24271 29.865 3.29038 33.696 6.29721 36.7028C9.30404 39.7096 13.135 41.7573 17.3056 42.5869C21.4762 43.4165 25.7991 42.9907 29.7277 41.3634C33.6563 39.7361 37.0142 36.9804 39.3766 33.4448C41.7391 29.9091 43 25.7523 43 21.5C42.9938 15.7997 40.7267 10.3347 36.696 6.30401C32.6653 2.27332 27.2003 0.00616527 21.5 0ZM21.5 39.4167C17.9564 39.4167 14.4924 38.3659 11.546 36.3972C8.59966 34.4285 6.30324 31.6303 4.94717 28.3564C3.5911 25.0826 3.23629 21.4801 3.92761 18.0046C4.61893 14.5291 6.32532 11.3367 8.83101 8.831C11.3367 6.32531 14.5291 4.61892 18.0046 3.9276C21.4801 3.23628 25.0826 3.59109 28.3564 4.94716C31.6303 6.30323 34.4285 8.59965 36.3972 11.546C38.3659 14.4924 39.4167 17.9564 39.4167 21.5C39.4115 26.2502 37.5221 30.8043 34.1632 34.1632C30.8043 37.5221 26.2502 39.4115 21.5 39.4167Z"
        fill="black"
    />
    <path
        d="M21.5 17.9167H19.7083C19.2331 17.9167 18.7774 18.1054 18.4414 18.4414C18.1054 18.7774 17.9167 19.2331 17.9167 19.7083C17.9167 20.1835 18.1054 20.6392 18.4414 20.9752C18.7774 21.3112 19.2331 21.5 19.7083 21.5H21.5V32.25C21.5 32.7252 21.6888 33.1809 22.0248 33.5169C22.3608 33.8529 22.8165 34.0417 23.2917 34.0417C23.7668 34.0417 24.2226 33.8529 24.5586 33.5169C24.8946 33.1809 25.0833 32.7252 25.0833 32.25V21.5C25.0833 20.5496 24.7058 19.6382 24.0338 18.9662C23.3618 18.2942 22.4503 17.9167 21.5 17.9167Z"
        fill="black"
    />
    <path
        d="M21.5 14.3333C22.9843 14.3333 24.1875 13.1301 24.1875 11.6458C24.1875 10.1616 22.9843 8.95834 21.5 8.95834C20.0157 8.95834 18.8125 10.1616 18.8125 11.6458C18.8125 13.1301 20.0157 14.3333 21.5 14.3333Z"
        fill="black"
    />
    </g>
    <defs>
    <clipPath id="clip0_47_80">
        <rect width="43" height="43" fill="white" />
    </clipPath>
    </defs>
</svg>