<svg width="30" height="30" viewBox="0 0 30 30" fill="none" xmlns="http://www.w3.org/2000/svg">
<path d="M18.2325 20H15V27.5H0V22.45L9.6175 12.8325C10.0162 12.435 10.665 12.435 11.0637 12.8325L18.2313 20H18.2325ZM20 8.75C20.6887 8.75 21.25 8.19 21.25 7.5C21.25 6.81 20.6887 6.25 20 6.25C19.3113 6.25 18.75 6.81 18.75 7.5C18.75 8.19 19.3113 8.75 20 8.75ZM30 22.5H25V17.5H22.5V22.5H17.5V25H22.5V30H25V25H30V22.5ZM7.85 11.065L0 18.915V3.75C0 1.6825 1.6825 0 3.75 0H23.75C25.8175 0 27.5 1.6825 27.5 3.75V15H20V18.2325L12.8325 11.0637C11.4575 9.68875 9.22375 9.69125 7.85125 11.0637L7.85 11.065ZM16.25 7.5C16.25 9.5675 17.9325 11.25 20 11.25C22.0675 11.25 23.75 9.5675 23.75 7.5C23.75 5.4325 22.0675 3.75 20 3.75C17.9325 3.75 16.25 5.4325 16.25 7.5Z" fill="black"/>
</svg>
