<svg width="50" height="50" viewBox="0 0 50 50" fill="none" xmlns="http://www.w3.org/2000/svg">
<g clip-path="url(#clip0_830_151)">
<path d="M25 43.75C25 44.9021 24.0667 45.8333 22.9167 45.8333H10.4167C4.67292 45.8333 0 41.1604 0 35.4167V10.4167C0 4.67292 4.67292 0 10.4167 0H35.4167C41.1604 0 45.8333 4.67292 45.8333 10.4167V22.9167C45.8333 24.0687 44.9 25 43.75 25C42.6 25 41.6667 24.0687 41.6667 22.9167V10.4167C41.6667 6.97083 38.8625 4.16667 35.4167 4.16667H10.4167C6.97083 4.16667 4.16667 6.97083 4.16667 10.4167V24.9146L10.0167 19.0646C13.2083 15.8708 18.4021 15.8708 21.5958 19.0646L32.7229 30.1917C33.5375 31.0062 33.5375 32.3229 32.7229 33.1375C32.3167 33.5438 31.7833 33.7479 31.25 33.7479C30.7167 33.7479 30.1833 33.5438 29.7771 33.1375L18.65 22.0104C17.0833 20.4458 14.5333 20.4437 12.9625 22.0104L4.16667 30.8062V35.4167C4.16667 38.8625 6.97083 41.6667 10.4167 41.6667H22.9167C24.0667 41.6667 25 42.5979 25 43.75ZM31.25 7.29167C34.6958 7.29167 37.5 10.0958 37.5 13.5417C37.5 16.9875 34.6958 19.7917 31.25 19.7917C27.8042 19.7917 25 16.9875 25 13.5417C25 10.0958 27.8042 7.29167 31.25 7.29167ZM31.25 11.4583C30.1021 11.4583 29.1667 12.3917 29.1667 13.5417C29.1667 14.6917 30.1021 15.625 31.25 15.625C32.3979 15.625 33.3333 14.6917 33.3333 13.5417C33.3333 12.3917 32.3979 11.4583 31.25 11.4583ZM47.9167 37.5H41.6667V31.25C41.6667 30.0979 40.7333 29.1667 39.5833 29.1667C38.4333 29.1667 37.5 30.0979 37.5 31.25V37.5H31.25C30.1 37.5 29.1667 38.4312 29.1667 39.5833C29.1667 40.7354 30.1 41.6667 31.25 41.6667H37.5V47.9167C37.5 49.0687 38.4333 50 39.5833 50C40.7333 50 41.6667 49.0687 41.6667 47.9167V41.6667H47.9167C49.0667 41.6667 50 40.7354 50 39.5833C50 38.4312 49.0667 37.5 47.9167 37.5Z" fill="black"/>
</g>
<defs>
<clipPath id="clip0_830_151">
<rect width="50" height="50" fill="white"/>
</clipPath>
</defs>
</svg>
