<svg width="40" height="40" viewBox="0 0 40 40" fill="none" xmlns="http://www.w3.org/2000/svg">
<g clip-path="url(#clip0_1129_472)">
<path d="M40.0001 18.745C39.759 14.8451 38.382 11.1009 36.0387 7.97407C33.6955 4.84726 30.4884 2.47451 26.8129 1.14835C23.1374 -0.177814 19.1542 -0.39942 15.3543 0.51085C11.5544 1.42112 8.10397 3.42347 5.42832 6.27106C2.75267 9.11864 0.9688 12.687 0.296635 16.5361C-0.375529 20.3853 0.0933928 24.347 1.64559 27.9329C3.19779 31.5188 5.76541 34.572 9.03191 36.7163C12.2984 38.8605 16.121 40.002 20.0284 40H31.6667C33.8762 39.9978 35.9945 39.1191 37.5569 37.5568C39.1192 35.9945 39.9979 33.8762 40.0001 31.6667V18.745ZM36.6667 31.6667C36.6667 32.9928 36.1399 34.2645 35.2023 35.2022C34.2646 36.1399 32.9928 36.6667 31.6667 36.6667H20.0284C17.6766 36.6656 15.3515 36.1689 13.2046 35.2089C11.0577 34.2488 9.13719 32.8471 7.5684 31.095C5.99202 29.3438 4.80828 27.2758 4.09656 25.0297C3.38483 22.7835 3.16156 20.4112 3.44173 18.0717C3.88413 14.3816 5.54205 10.9437 8.15413 8.2999C10.7662 5.65612 14.1839 3.95687 17.8684 3.47002C18.5871 3.37994 19.3107 3.3343 20.0351 3.33336C23.9192 3.32276 27.6831 4.67986 30.6667 7.16669C32.4093 8.61493 33.8396 10.4019 34.8709 12.4194C35.9023 14.4369 36.5133 16.6428 36.6667 18.9034V31.6667Z" fill="black"/>
<path d="M13.3333 15H20C20.442 15 20.866 14.8244 21.1785 14.5119C21.4911 14.1993 21.6667 13.7754 21.6667 13.3334C21.6667 12.8913 21.4911 12.4674 21.1785 12.1548C20.866 11.8423 20.442 11.6667 20 11.6667H13.3333C12.8913 11.6667 12.4674 11.8423 12.1548 12.1548C11.8423 12.4674 11.6667 12.8913 11.6667 13.3334C11.6667 13.7754 11.8423 14.1993 12.1548 14.5119C12.4674 14.8244 12.8913 15 13.3333 15Z" fill="black"/>
<path d="M26.6667 18.3333H13.3333C12.8913 18.3333 12.4674 18.5089 12.1548 18.8215C11.8423 19.134 11.6667 19.558 11.6667 20C11.6667 20.442 11.8423 20.8659 12.1548 21.1785C12.4674 21.4911 12.8913 21.6666 13.3333 21.6666H26.6667C27.1087 21.6666 27.5326 21.4911 27.8452 21.1785C28.1577 20.8659 28.3333 20.442 28.3333 20C28.3333 19.558 28.1577 19.134 27.8452 18.8215C27.5326 18.5089 27.1087 18.3333 26.6667 18.3333Z" fill="black"/>
<path d="M26.6667 25H13.3333C12.8913 25 12.4674 25.1756 12.1548 25.4882C11.8423 25.8007 11.6667 26.2246 11.6667 26.6667C11.6667 27.1087 11.8423 27.5326 12.1548 27.8452C12.4674 28.1577 12.8913 28.3333 13.3333 28.3333H26.6667C27.1087 28.3333 27.5326 28.1577 27.8452 27.8452C28.1577 27.5326 28.3333 27.1087 28.3333 26.6667C28.3333 26.2246 28.1577 25.8007 27.8452 25.4882C27.5326 25.1756 27.1087 25 26.6667 25Z" fill="black"/>
</g>
<defs>
<clipPath id="clip0_1129_472">
<rect width="40" height="40" fill="white"/>
</clipPath>
</defs>
</svg>
