<svg
width="35"
height="35"
viewBox="0 0 35 35"
fill="none"
xmlns="http://www.w3.org/2000/svg"
>
<g clip-path="url(#clip0_603_22)">
    <path
    d="M17.5 0C7.85021 0 0 7.85021 0 17.5C0 27.1498 7.85021 35 17.5 35C27.1498 35 35 27.1498 35 17.5C35 7.85021 27.1498 0 17.5 0ZM17.5 27.7083C16.2925 27.7083 15.3125 26.7283 15.3125 25.5208C15.3125 24.3133 16.2925 23.3333 17.5 23.3333C18.7075 23.3333 19.6875 24.3133 19.6875 25.5208C19.6875 26.7283 18.7075 27.7083 17.5 27.7083ZM17.5 19.6875C16.2925 19.6875 15.3125 18.7075 15.3125 17.5C15.3125 16.2925 16.2925 15.3125 17.5 15.3125C18.7075 15.3125 19.6875 16.2925 19.6875 17.5C19.6875 18.7075 18.7075 19.6875 17.5 19.6875ZM17.5 11.6667C16.2925 11.6667 15.3125 10.6867 15.3125 9.47917C15.3125 8.27167 16.2925 7.29167 17.5 7.29167C18.7075 7.29167 19.6875 8.27167 19.6875 9.47917C19.6875 10.6867 18.7075 11.6667 17.5 11.6667Z"
    fill="currentColor"
    />
</g>
<defs>
    <clipPath id="clip0_603_22">
    <rect width="35" height="35" fill="white" />
    </clipPath>
</defs>
</svg>