<svg width="30" height="30" viewBox="0 0 30 30" fill="none" xmlns="http://www.w3.org/2000/svg"><g clip-path="url(#clip0_603_4)"><path d="M16.045 0.0362535C11.7138 -0.254997 7.45251 1.33125 4.38626 4.40125C1.32126 7.47 -0.26374 11.7225 0.0362599 16.0675C0.58751 24.01 7.60251 30 16.3538 30H23.75C27.1963 30 30 27.1963 30 23.75V15.425C30 7.3275 23.8713 0.567503 16.045 0.0362535ZM10.625 10C11.66 10 12.5 10.84 12.5 11.875C12.5 12.91 11.66 13.75 10.625 13.75C9.59001 13.75 8.75001 12.91 8.75001 11.875C8.75001 10.84 9.59001 10 10.625 10ZM20.88 19.0125C20.7875 19.1038 18.58 21.25 15 21.25C11.42 21.25 9.21251 19.105 9.12001 19.0125C8.63001 18.5263 8.62501 17.7363 9.11126 17.245C9.59876 16.755 10.3875 16.75 10.88 17.2363C10.9375 17.2925 12.48 18.7488 15 18.7488C17.52 18.7488 19.0625 17.2913 19.1275 17.23C19.6225 16.7525 20.4125 16.7625 20.8913 17.255C21.3713 17.7463 21.3675 18.53 20.88 19.0125ZM19.375 13.75C18.34 13.75 17.5 12.91 17.5 11.875C17.5 10.84 18.34 10 19.375 10C20.41 10 21.25 10.84 21.25 11.875C21.25 12.91 20.41 13.75 19.375 13.75Z" fill="currentColor"/></g><defs><clipPath id="clip0_603_4"><rect width="30" height="30" fill="none"/></clipPath></defs></svg>