<svg width="20px" height="20px" viewBox="0 0 20 20" fill="none" xmlns="http://www.w3.org/2000/svg"><g clip-path="url(#clip0_116_4067)"><path fill-rule="evenodd" clip-rule="evenodd" d="M16.1045 4.95607L19.3939 1.66666L18.3333 0.606003L14.8642 4.07505C13.4821 3.21327 11.8425 2.58334 10 2.58334C7.61378 2.58334 5.56782 3.63992 3.98087 4.88836C2.39235 6.13802 1.20973 7.62137 0.531578 8.58147L0.531571 8.58147L0.529591 8.5843C0.239307 8.99932 0.0836182 9.49354 0.0836182 10C0.0836182 10.5065 0.239307 11.0007 0.529591 11.4157L0.529584 11.4157L0.531578 11.4185C1.19751 12.3613 2.3499 13.8087 3.89541 15.0439L0.605957 18.3333L1.66662 19.394L5.1357 15.9249C6.51782 16.7867 8.15748 17.4167 10 17.4167C12.3862 17.4167 14.4322 16.3601 16.0191 15.1116C17.6077 13.862 18.7903 12.3786 19.4684 11.4185L19.4704 11.4157C19.7607 11.0007 19.9164 10.5065 19.9164 10C19.9164 9.49354 19.7607 8.99932 19.4704 8.5843L19.4684 8.58147C18.8025 7.63865 17.6501 6.19126 16.1045 4.95607ZM13.7712 5.16804C12.6382 4.51448 11.3707 4.08334 10 4.08334C8.06873 4.08334 6.3422 4.93925 4.90831 6.06727C3.47683 7.19341 2.39072 8.54955 1.75788 9.4453C1.64445 9.60802 1.58362 9.80162 1.58362 10C1.58362 10.1984 1.64445 10.392 1.75788 10.5547C2.39072 11.4505 3.47683 12.8066 4.90831 13.9327C4.92664 13.9471 4.94501 13.9615 4.96344 13.9758L6.63112 12.3082C6.18038 11.6516 5.91663 10.8566 5.91663 10C5.91663 7.74483 7.7448 5.91666 9.99996 5.91666C10.8565 5.91666 11.6515 6.18042 12.3081 6.63115L13.7712 5.16804ZM13.3688 7.69181L15.0365 6.0241C15.055 6.03845 15.0734 6.05284 15.0917 6.06727C16.5232 7.19338 17.6092 8.54949 18.2421 9.44524C18.3556 9.60797 18.4164 9.80159 18.4164 10C18.4164 10.1984 18.3556 10.392 18.2421 10.5548C17.6092 11.4505 16.5232 12.8066 15.0917 13.9327C13.6578 15.0608 11.9313 15.9167 10 15.9167C8.62929 15.9167 7.36171 15.4855 6.22869 14.8319L7.69178 13.3688C8.34837 13.8196 9.14336 14.0833 9.99996 14.0833C12.2551 14.0833 14.0833 12.2552 14.0833 10C14.0833 9.1434 13.8195 8.34841 13.3688 7.69181ZM11.218 7.72127C10.8551 7.5269 10.4404 7.41666 9.99996 7.41666C8.57322 7.41666 7.41663 8.57326 7.41663 10C7.41663 10.4405 7.52686 10.8552 7.72124 11.218L11.218 7.72127ZM8.78189 12.2787L12.2787 8.78193C12.4731 9.14482 12.5833 9.55954 12.5833 10C12.5833 11.4267 11.4267 12.5833 9.99996 12.5833C9.5595 12.5833 9.14478 12.4731 8.78189 12.2787Z" fill="currentColor"></path></g><defs><clipPath id="clip0_116_4067"><rect width="20" height="20" fill="white"></rect></clipPath></defs></svg>