<svg width="20px" height="20px" viewBox="0 0 20 20" fill="none" xmlns="http://www.w3.org/2000/svg"><path fill-rule="evenodd" clip-rule="evenodd" d="M1.58362 10C1.58362 9.80162 1.64445 9.60802 1.75788 9.4453C2.39072 8.54955 3.47683 7.19341 4.90831 6.06727C6.3422 4.93925 8.06873 4.08334 10 4.08334C11.9313 4.08334 13.6578 4.93925 15.0917 6.06727C16.5232 7.19338 17.6092 8.54949 18.2421 9.44524C18.3556 9.60797 18.4164 9.80159 18.4164 10C18.4164 10.1984 18.3556 10.392 18.2421 10.5548C17.6092 11.4505 16.5232 12.8066 15.0917 13.9327C13.6578 15.0608 11.9313 15.9167 10 15.9167C8.06873 15.9167 6.3422 15.0608 4.90831 13.9327C3.47683 12.8066 2.39072 11.4505 1.75788 10.5547C1.64445 10.392 1.58362 10.1984 1.58362 10ZM10 2.58334C7.61378 2.58334 5.56782 3.63992 3.98087 4.88836C2.39235 6.13802 1.20973 7.62137 0.531578 8.58147L0.531571 8.58147L0.529591 8.5843C0.239307 8.99932 0.0836182 9.49354 0.0836182 10C0.0836182 10.5065 0.239307 11.0007 0.529591 11.4157L0.529584 11.4157L0.531578 11.4185C1.20973 12.3786 2.39235 13.862 3.98087 15.1116C5.56782 16.3601 7.61378 17.4167 10 17.4167C12.3862 17.4167 14.4322 16.3601 16.0191 15.1116C17.6077 13.862 18.7903 12.3786 19.4684 11.4185L19.4704 11.4157C19.7607 11.0007 19.9164 10.5065 19.9164 10C19.9164 9.49354 19.7607 8.99932 19.4704 8.5843L19.4684 8.58147C18.7903 7.62137 17.6077 6.13802 16.0191 4.88836C14.4322 3.63992 12.3862 2.58334 10 2.58334ZM7.41663 10C7.41663 8.57327 8.57322 7.41667 9.99996 7.41667C11.4267 7.41667 12.5833 8.57327 12.5833 10C12.5833 11.4267 11.4267 12.5833 9.99996 12.5833C8.57322 12.5833 7.41663 11.4267 7.41663 10ZM9.99996 5.91667C7.7448 5.91667 5.91663 7.74484 5.91663 10C5.91663 12.2552 7.7448 14.0833 9.99996 14.0833C12.2551 14.0833 14.0833 12.2552 14.0833 10C14.0833 7.74484 12.2551 5.91667 9.99996 5.91667Z" fill="currentColor"></path></svg>