<svg
    className="google-logo"
    width="20"
    height="20"
    viewBox="0 0 37 37"
    fill="none"
    xmlns="http://www.w3.org/2000/svg"
>
    <g clipPath="url(#clip0_370_165)">
    <path
        d="M36.5591 18.8461C36.5591 17.3302 36.4361 16.224 36.1699 15.0769H18.8601V21.9188H29.0206C28.8158 23.6191 27.7096 26.1797 25.2514 27.9004L25.2169 28.1294L30.6899 32.3693L31.0691 32.4072C34.5515 29.191 36.5591 24.4589 36.5591 18.8461Z"
        fill="#4285F4"
    />
    <path
        d="M18.8601 36.8729C23.8379 36.8729 28.0168 35.234 31.0691 32.4072L25.2514 27.9004C23.6945 28.9861 21.605 29.744 18.8601 29.744C13.9847 29.744 9.8468 26.528 8.37174 22.0828L8.15553 22.1011L2.46459 26.5054L2.39017 26.7123C5.42191 32.7348 11.6493 36.8729 18.8601 36.8729Z"
        fill="#34A853"
    />
    <path
        d="M8.37174 22.0828C7.98253 20.9357 7.75729 19.7065 7.75729 18.4365C7.75729 17.1663 7.98253 15.9373 8.35126 14.7901L8.34095 14.5458L2.5787 10.0708L2.39017 10.1605C1.14064 12.6597 0.42366 15.4662 0.42366 18.4365C0.42366 21.4068 1.14064 24.2131 2.39017 26.7123L8.37174 22.0828Z"
        fill="#FBBC05"
    />
    <path
        d="M18.8601 7.12871C22.322 7.12871 24.6572 8.62411 25.9888 9.87377L31.192 4.79348C27.9964 1.82317 23.8379 0 18.8601 0C11.6493 0 5.42191 4.13793 2.39017 10.1605L8.35126 14.7901C9.8468 10.3449 13.9847 7.12871 18.8601 7.12871Z"
        fill="#EB4335"
    />
    </g>
    <defs>
    <clipPath id="clip0_370_165">
        <rect width="37" height="37" fill="white" />
    </clipPath>
    </defs>
</svg>