<svg
    width="40"
    height="40"
    viewBox="0 0 40 40"
    fill="none"
    xmlns="http://www.w3.org/2000/svg"
>
    <g clipPath="url(#clip0_50_116)">
    <path
        d="M20 0C16.0444 0 12.1776 1.17298 8.8886 3.37061C5.59962 5.56824 3.03617 8.69181 1.52242 12.3463C0.00866572 16.0009 -0.387401 20.0222 0.384303 23.9018C1.15601 27.7814 3.06082 31.3451 5.85787 34.1421C8.65492 36.9392 12.2186 38.844 16.0982 39.6157C19.9778 40.3874 23.9992 39.9913 27.6537 38.4776C31.3082 36.9638 34.4318 34.4004 36.6294 31.1114C38.827 27.8224 40 23.9556 40 20C39.9943 14.6974 37.8853 9.61368 34.1358 5.8642C30.3863 2.11471 25.3026 0.00573514 20 0ZM20 36.6667C16.7037 36.6667 13.4813 35.6892 10.7405 33.8578C7.99969 32.0265 5.86348 29.4235 4.60202 26.3781C3.34056 23.3326 3.0105 19.9815 3.65359 16.7485C4.29667 13.5155 5.88402 10.5458 8.2149 8.21489C10.5458 5.88401 13.5155 4.29667 16.7485 3.65358C19.9815 3.01049 23.3326 3.34055 26.3781 4.60201C29.4235 5.86347 32.0265 7.99968 33.8578 10.7405C35.6892 13.4813 36.6667 16.7036 36.6667 20C36.6618 24.4188 34.9043 28.6552 31.7798 31.7798C28.6552 34.9043 24.4188 36.6618 20 36.6667Z"
        fill="black"
    />
    <path
        d="M21.195 8.43833C20.2339 8.26321 19.246 8.30147 18.3013 8.5504C17.3566 8.79932 16.4782 9.25283 15.7282 9.87884C14.9781 10.5048 14.3749 11.288 13.961 12.173C13.5472 13.058 13.3329 14.0231 13.3333 15C13.3333 15.442 13.5089 15.8659 13.8215 16.1785C14.1341 16.4911 14.558 16.6667 15 16.6667C15.442 16.6667 15.866 16.4911 16.1785 16.1785C16.4911 15.8659 16.6667 15.442 16.6667 15C16.6663 14.5096 16.774 14.0252 16.9823 13.5813C17.1906 13.1373 17.4943 12.7448 17.8717 12.4317C18.2491 12.1186 18.691 11.8926 19.1657 11.7699C19.6405 11.6472 20.1365 11.6307 20.6183 11.7217C21.2767 11.8495 21.8821 12.1706 22.3571 12.6441C22.8321 13.1177 23.1551 13.722 23.285 14.38C23.4162 15.0707 23.3256 15.7851 23.0263 16.4212C22.7269 17.0573 22.2341 17.5825 21.6183 17.9217C20.5986 18.5124 19.756 19.3659 19.1782 20.393C18.6005 21.4201 18.3087 22.5834 18.3333 23.7617V25C18.3333 25.442 18.5089 25.8659 18.8215 26.1785C19.1341 26.4911 19.558 26.6667 20 26.6667C20.442 26.6667 20.866 26.4911 21.1785 26.1785C21.4911 25.8659 21.6667 25.442 21.6667 25V23.7617C21.6458 23.1817 21.778 22.6064 22.0501 22.0938C22.3222 21.5812 22.7246 21.1493 23.2167 20.8417C24.4242 20.1784 25.3966 19.1574 26.0002 17.919C26.6037 16.6806 26.8088 15.2856 26.5871 13.9259C26.3655 12.5661 25.7281 11.3085 24.7625 10.3258C23.7969 9.34316 22.5506 8.68377 21.195 8.43833Z"
        fill="black"
    />
    <path
        d="M21.6667 30C21.6667 29.0795 20.9205 28.3333 20 28.3333C19.0795 28.3333 18.3333 29.0795 18.3333 30C18.3333 30.9205 19.0795 31.6667 20 31.6667C20.9205 31.6667 21.6667 30.9205 21.6667 30Z"
        fill="black"
    />
    </g>
    <defs>
    <clipPath id="clip0_50_116">
        <rect width="40" height="40" fill="white" />
    </clipPath>
    </defs>
</svg>