<svg
    width="41"
    height="40"
    viewBox="0 0 41 40"
    fill="none"
    xmlns="http://www.w3.org/2000/svg"
    >
    <path
        d="M29.0417 30.7436V41H35.875C38.7054 41 41 38.704 41 35.8718V20.2804C41.0004 19.3924 40.6555 18.539 40.0382 17.9009L25.5208 2.19665C22.9593 -0.576585 18.636 -0.746857 15.8645 1.81628C15.7329 1.93807 15.606 2.06491 15.4844 2.19665L0.992569 17.8958C0.356588 18.5365 -0.000240113 19.403 1.21225e-07 20.3061V35.8718C1.21225e-07 38.704 2.29456 41 5.125 41H11.9583V30.7436C11.9903 26.0824 15.7513 22.276 20.2923 22.1664C24.9852 22.0531 29.0059 25.9243 29.0417 30.7436Z"
        fill="black"
    />
    <path
        d="M20.5 25.6154C17.6696 25.6154 15.375 27.9114 15.375 30.7436V41H25.625V30.7436C25.625 27.9114 23.3304 25.6154 20.5 25.6154Z"
        fill="black"
    />
</svg>