<svg
    width="40"
    height="40"
    viewBox="0 0 40 40"
    fill="none"
    xmlns="http://www.w3.org/2000/svg"
>
    <g clipPath="url(#clip0_49_110)">
    <path
        d="M31.6684 20V8.33333C31.6684 3.73833 27.93 0 23.335 0H8.33502C3.74002 0 0.00169037 3.73833 0.00169037 8.33333V29.7567C-0.086643 32.5283 3.30669 34.3467 5.56836 32.7367L12.1734 28.3317H23.335C27.93 28.3317 31.6684 24.5933 31.6684 19.9983V20ZM12.835 12.84C13.5717 12.84 14.1684 13.4367 14.1684 14.1733C14.1684 14.91 13.5717 15.5067 12.835 15.5067H11V17.3417H12.835C13.5717 17.3417 14.1684 17.9383 14.1684 18.675C14.1684 19.4117 13.5717 20.0083 12.835 20.0083H10.0017C9.08169 20.0083 8.33502 19.2617 8.33502 18.3417V10.0067C8.33502 9.08667 9.08169 8.34 10.0017 8.34H12.835C13.5717 8.34 14.1684 8.93667 14.1684 9.67333C14.1684 10.41 13.5717 11.0067 12.835 11.0067H11V12.8417H12.835V12.84ZM20.7117 19.135L18.325 14.0933V18.7617C18.325 19.4483 17.7684 20.0067 17.08 20.0067C16.3917 20.0067 15.835 19.45 15.835 18.7617V9.86333C15.835 9.02167 16.5167 8.34 17.3584 8.34C17.9484 8.34 18.4834 8.68 18.7367 9.21333L21.125 14.265V9.585C21.125 8.89833 21.6817 8.34 22.37 8.34C23.0584 8.34 23.615 8.89667 23.615 9.585V18.4833C23.615 19.325 22.9334 20.0067 22.0917 20.0067C21.5034 20.0067 20.9667 19.6667 20.715 19.135H20.7117ZM40.0017 15V36.4233C40.09 39.1933 36.6967 41.015 34.4367 39.405L27.83 34.9983H18.335C15.9184 34.9983 13.7567 33.9467 12.2334 32.2983L13.1817 31.665H23.335C29.7667 31.665 35.0017 26.4317 35.0017 19.9983V8.33333C35.0017 8.01167 34.9784 7.695 34.9534 7.37833C37.9134 8.65667 40.0017 11.5767 40.0017 15Z"
        fill="black"
    />
    </g>
    <defs>
    <clipPath id="clip0_49_110">
        <rect width="40" height="40" fill="white" />
    </clipPath>
    </defs>
</svg>