<svg
    width="34"
    height="34"
    viewBox="0 0 34 34"
    fill="none"
    xmlns="http://www.w3.org/2000/svg"
    >
    <path
        d="M33.3782 30.3807L26.7976 23.7973C31.7215 17.2172 30.3789 7.89131 23.7989 2.96737C17.2188 -1.95656 7.89284 -0.613966 2.96891 5.96613C-1.95503 12.5462 -0.612435 21.8721 5.96766 26.7961C11.2533 30.7514 18.5131 30.7514 23.7989 26.7961L30.3823 33.3795C31.2096 34.2068 32.5509 34.2068 33.3782 33.3795C34.2055 32.5522 34.2055 31.2108 33.3782 30.3836L33.3782 30.3807ZM14.9381 25.5254C9.09004 25.5254 4.34929 20.7847 4.34929 14.9366C4.34929 9.08851 9.09004 4.34776 14.9381 4.34776C20.7862 4.34776 25.527 9.08851 25.527 14.9366C25.5207 20.782 20.7836 25.5192 14.9381 25.5254Z"
        fill="black"
    />
</svg>