<svg
    width="30"
    height="30"
    viewBox="0 0 30 30"
    fill="none"
    xmlns="http://www.w3.org/2000/svg"
>
    <g clip-path="url(#clip0_603_6)">
    <path
        d="M29.6235 2.14804L6.48615 25.2791C6.98635 25.5229 7.53499 25.651 8.09141 25.6539H12.054C12.3855 25.653 12.7035 25.7848 12.9372 26.0199L15.0847 28.1662C16.2493 29.3388 17.8332 29.9988 19.4858 30.0001C20.1681 29.9994 20.8457 29.8876 21.4921 29.669C23.7202 28.9385 25.3409 27.007 25.6733 24.6858L29.8945 4.63531C30.0961 3.79986 30.0002 2.92037 29.6235 2.14804Z"
        fill="black"
    />
    <path
        d="M25.401 0.0965088L5.39928 4.31026C1.98169 4.77979 -0.408202 7.93094 0.0613198 11.3485C0.246775 12.6982 0.868373 13.9503 1.83143 14.9139L3.97766 17.0601C4.21224 17.2946 4.34394 17.6128 4.3437 17.9446V21.9072C4.34657 22.4636 4.4747 23.0123 4.71848 23.5124L27.852 0.37513C27.0918 0.00152692 26.2256 -0.09691 25.401 0.0965088Z"
        fill="currentColor"
    />
    </g>
    <defs>
    <clipPath id="clip0_603_6">
        <rect width="30" height="30" fill="none" />
    </clipPath>
    </defs>
</svg>