<svg width="40" height="40" viewBox="0 0 40 40" fill="none" xmlns="http://www.w3.org/2000/svg">
<g clip-path="url(#clip0_1129_478)">
<path d="M33.3333 0H6.66667C4.89856 0 3.20286 0.702379 1.95262 1.95262C0.702379 3.20286 0 4.89856 0 6.66667L0 26.6667C0 28.4348 0.702379 30.1305 1.95262 31.3807C3.20286 32.631 4.89856 33.3333 6.66667 33.3333H11.5L18.9183 39.605C19.2193 39.8597 19.6008 39.9994 19.995 39.9994C20.3892 39.9994 20.7707 39.8597 21.0717 39.605L28.5 33.3333H33.3333C35.1014 33.3333 36.7971 32.631 38.0474 31.3807C39.2976 30.1305 40 28.4348 40 26.6667V6.66667C40 4.89856 39.2976 3.20286 38.0474 1.95262C36.7971 0.702379 35.1014 0 33.3333 0ZM36.6667 26.6667C36.6667 27.5507 36.3155 28.3986 35.6904 29.0237C35.0652 29.6488 34.2174 30 33.3333 30H28.5C27.7122 30.0002 26.9499 30.2795 26.3483 30.7883L20 36.15L13.655 30.7883C13.0526 30.2788 12.289 29.9995 11.5 30H6.66667C5.78261 30 4.93476 29.6488 4.30964 29.0237C3.68452 28.3986 3.33333 27.5507 3.33333 26.6667V6.66667C3.33333 5.78261 3.68452 4.93476 4.30964 4.30964C4.93476 3.68452 5.78261 3.33333 6.66667 3.33333H33.3333C34.2174 3.33333 35.0652 3.68452 35.6904 4.30964C36.3155 4.93476 36.6667 5.78261 36.6667 6.66667V26.6667Z" fill="black"/>
<path d="M11.6667 11.6666H20C20.442 11.6666 20.866 11.4911 21.1785 11.1785C21.4911 10.8659 21.6667 10.442 21.6667 9.99998C21.6667 9.55795 21.4911 9.13403 21.1785 8.82147C20.866 8.50891 20.442 8.33331 20 8.33331H11.6667C11.2246 8.33331 10.8007 8.50891 10.4882 8.82147C10.1756 9.13403 10 9.55795 10 9.99998C10 10.442 10.1756 10.8659 10.4882 11.1785C10.8007 11.4911 11.2246 11.6666 11.6667 11.6666Z" fill="black"/>
<path d="M28.3333 15H11.6667C11.2246 15 10.8007 15.1756 10.4882 15.4882C10.1756 15.8007 10 16.2246 10 16.6667C10 17.1087 10.1756 17.5326 10.4882 17.8452C10.8007 18.1577 11.2246 18.3333 11.6667 18.3333H28.3333C28.7754 18.3333 29.1993 18.1577 29.5118 17.8452C29.8244 17.5326 30 17.1087 30 16.6667C30 16.2246 29.8244 15.8007 29.5118 15.4882C29.1993 15.1756 28.7754 15 28.3333 15Z" fill="black"/>
<path d="M28.3333 21.6667H11.6667C11.2246 21.6667 10.8007 21.8423 10.4882 22.1548C10.1756 22.4674 10 22.8913 10 23.3334C10 23.7754 10.1756 24.1993 10.4882 24.5119C10.8007 24.8244 11.2246 25 11.6667 25H28.3333C28.7754 25 29.1993 24.8244 29.5118 24.5119C29.8244 24.1993 30 23.7754 30 23.3334C30 22.8913 29.8244 22.4674 29.5118 22.1548C29.1993 21.8423 28.7754 21.6667 28.3333 21.6667Z" fill="black"/>
</g>
<defs>
<clipPath id="clip0_1129_478">
<rect width="40" height="40" fill="white"/>
</clipPath>
</defs>
</svg>
