<?xml version="1.0" standalone="no"?>
<!DOCTYPE svg PUBLIC "-//W3C//DTD SVG 20010904//EN"
 "http://www.w3.org/TR/2001/REC-SVG-20010904/DTD/svg10.dtd">
<svg version="1.0" xmlns="http://www.w3.org/2000/svg"
 width="512.000000pt" height="512.000000pt" viewBox="0 0 512.000000 512.000000"
 preserveAspectRatio="xMidYMid meet">

<g transform="translate(0.000000,512.000000) scale(0.100000,-0.100000)"
fill="#000000" stroke="none">
<path d="M960 4146 c-147 -41 -267 -162 -306 -310 -20 -76 -20 -2156 0 -2232
41 -155 171 -280 324 -313 35 -7 205 -11 493 -11 304 0 447 -3 462 -11 12 -6
135 -123 272 -259 259 -257 276 -270 355 -270 79 0 96 13 355 270 138 136 260
253 272 259 15 8 158 11 462 11 284 0 459 4 493 11 157 33 293 170 327 327 7
36 11 251 11 668 0 684 2 662 -67 690 -43 19 -93 5 -123 -33 -20 -25 -20 -39
-20 -635 0 -433 -3 -623 -12 -656 -16 -64 -86 -134 -150 -150 -32 -8 -184 -12
-492 -12 -430 0 -447 -1 -503 -21 -53 -20 -81 -45 -306 -267 l-247 -246 -243
241 c-149 148 -259 250 -287 264 l-45 24 -485 5 c-449 5 -488 6 -523 24 -51
25 -103 88 -116 141 -16 64 -15 2069 1 2133 16 64 86 134 150 150 67 17 3029
17 3096 0 64 -16 134 -86 150 -150 7 -28 12 -124 12 -233 l0 -187 29 -29 c48
-47 130 -37 164 21 14 24 17 59 17 219 0 104 -5 214 -11 243 -33 153 -158 283
-313 324 -72 19 -3127 19 -3196 0z"/>
<path d="M1741 3504 c-133 -36 -247 -132 -308 -259 -31 -66 -37 -89 -41 -170
-4 -75 -1 -106 16 -161 23 -77 62 -143 111 -190 l32 -31 -53 -30 c-150 -85
-271 -240 -312 -399 -18 -71 -21 -211 -5 -267 21 -75 112 -101 171 -48 l33 30
-3 92 c-4 151 33 245 137 341 91 85 226 138 351 138 189 0 376 -111 453 -269
29 -62 32 -73 33 -176 0 -64 5 -119 12 -132 18 -33 52 -53 92 -53 45 0 78 23
96 66 19 45 18 204 -1 277 -43 165 -176 331 -327 408 l-38 19 50 62 c149 185
139 439 -23 614 -119 129 -307 183 -476 138z m205 -209 c151 -44 228 -222 158
-363 -95 -190 -377 -189 -476 2 -60 116 -16 265 98 332 77 45 139 53 220 29z"/>
<path d="M3254 3289 c-47 -23 -54 -55 -54 -238 l0 -171 -170 0 c-194 0 -222
-7 -246 -67 -19 -43 -5 -93 33 -123 24 -18 40 -20 204 -20 l178 0 3 -184 c3
-179 4 -185 27 -210 33 -35 85 -44 127 -21 18 10 36 25 41 34 4 9 10 97 13
196 l5 180 180 5 c99 3 187 9 196 13 9 5 24 23 34 41 23 42 14 94 -21 127 -25
23 -31 24 -210 27 l-184 3 0 180 0 181 -29 29 c-31 31 -84 38 -127 18z"/>
</g>
</svg>
