<svg
    width="42"
    height="42"
    viewBox="0 0 42 42"
    fill="none"
    xmlns="http://www.w3.org/2000/svg"
>
    <g clipPath="url(#clip0_47_70)">
    <path
        d="M21 28C19.6155 28 18.2622 27.5895 17.111 26.8203C15.9599 26.0511 15.0627 24.9579 14.5328 23.6788C14.003 22.3997 13.8644 20.9922 14.1345 19.6344C14.4046 18.2765 15.0713 17.0292 16.0503 16.0503C17.0292 15.0713 18.2765 14.4046 19.6344 14.1345C20.9922 13.8644 22.3997 14.003 23.6788 14.5328C24.9579 15.0627 26.0511 15.9599 26.8203 17.111C27.5895 18.2622 28 19.6155 28 21C28 22.8565 27.2625 24.637 25.9497 25.9498C24.637 27.2625 22.8565 28 21 28ZM9.94525 28H1.75C1.28587 28 0.840752 27.8156 0.512563 27.4874C0.184374 27.1593 0 26.7141 0 26.25C0.0165827 23.7372 0.930518 21.313 2.57697 19.4146C4.22343 17.5163 6.49402 16.2687 8.97925 15.897C9.26804 15.8565 9.56236 15.8889 9.83546 15.9911C10.1086 16.0933 10.3518 16.2622 10.5431 16.4823C10.7343 16.7024 10.8676 16.9668 10.9306 17.2515C10.9937 17.5362 10.9846 17.8322 10.9043 18.1125C10.6361 19.0516 10.5 20.0234 10.5 21C10.5005 22.5571 10.851 24.0941 11.5255 25.4975C11.6524 25.7639 11.7098 26.058 11.6925 26.3525C11.6753 26.6471 11.5838 26.9325 11.4266 27.1822C11.2695 27.4319 11.0517 27.6378 10.7937 27.7808C10.5356 27.9238 10.2455 27.9992 9.9505 28H9.94525ZM29.75 42H12.25C11.7859 42 11.3408 41.8156 11.0126 41.4874C10.6844 41.1593 10.5 40.7141 10.5 40.25C10.5 37.4652 11.6062 34.7945 13.5754 32.8254C15.5445 30.8562 18.2152 29.75 21 29.75C23.7848 29.75 26.4555 30.8562 28.4246 32.8254C30.3938 34.7945 31.5 37.4652 31.5 40.25C31.5 40.7141 31.3156 41.1593 30.9874 41.4874C30.6593 41.8156 30.2141 42 29.75 42ZM31.5 14C30.1155 14 28.7622 13.5895 27.611 12.8203C26.4599 12.0511 25.5627 10.9579 25.0328 9.67879C24.503 8.3997 24.3644 6.99224 24.6345 5.63437C24.9046 4.2765 25.5713 3.02922 26.5503 2.05026C27.5292 1.07129 28.7765 0.404603 30.1344 0.134506C31.4922 -0.13559 32.8997 0.00303297 34.1788 0.532846C35.4579 1.06266 36.5511 1.95987 37.3203 3.11101C38.0895 4.26216 38.5 5.61553 38.5 7C38.5 8.85652 37.7625 10.637 36.4497 11.9498C35.137 13.2625 33.3565 14 31.5 14ZM10.5 14C9.11553 14 7.76215 13.5895 6.61101 12.8203C5.45986 12.0511 4.56266 10.9579 4.03284 9.67879C3.50303 8.3997 3.36441 6.99224 3.6345 5.63437C3.9046 4.2765 4.57129 3.02922 5.55025 2.05026C6.52922 1.07129 7.7765 0.404603 9.13437 0.134506C10.4922 -0.13559 11.8997 0.00303297 13.1788 0.532846C14.4579 1.06266 15.5511 1.95987 16.3203 3.11101C17.0895 4.26216 17.5 5.61553 17.5 7C17.5 8.85652 16.7625 10.637 15.4497 11.9498C14.137 13.2625 12.3565 14 10.5 14ZM40.25 28H32.0547C31.7597 27.9992 31.4697 27.9238 31.2116 27.7808C30.9535 27.6378 30.7358 27.4319 30.5786 27.1822C30.4215 26.9325 30.33 26.6471 30.3127 26.3525C30.2954 26.058 30.3529 25.7639 30.4797 25.4975C31.1525 24.0937 31.5011 22.5567 31.5 21C31.4971 20.023 31.3581 19.0511 31.087 18.1125C31.0061 17.8314 30.997 17.5345 31.0605 17.249C31.124 16.9634 31.258 16.6984 31.4504 16.478C31.6427 16.2576 31.8872 16.089 32.1616 15.9875C32.4359 15.886 32.7313 15.8549 33.0207 15.897C35.506 16.2687 37.7766 17.5163 39.423 19.4146C41.0695 21.313 41.9834 23.7372 42 26.25C42 26.7141 41.8156 27.1593 41.4874 27.4874C41.1592 27.8156 40.7141 28 40.25 28Z"
        fill="black"
    />
    </g>
    <defs>
    <clipPath id="clip0_47_70">
        <rect width="42" height="42" fill="white" />
    </clipPath>
    </defs>
</svg>