<svg
    width="40"
    height="40"
    viewBox="0 0 40 40"
    fill="none"
    xmlns="http://www.w3.org/2000/svg"
>
    <g clipPath="url(#clip0_50_113)">
    <path
        d="M30.8333 0H9.16667C4.11667 0 0 4.11667 0 9.16667V30.8333C0 35.8833 4.11667 40 9.16667 40H30.8333C35.8833 40 40 35.8833 40 30.8333V9.16667C40 4.11667 35.8833 0 30.8333 0ZM31.4167 5.05L5.05 31.4167C5.01667 31.2167 5 31.0333 5 30.8333V22.7C5 22.7 5.06667 22.6333 5.1 22.6C5.1 22.6 22.6667 5.03333 22.7 5H30.8333C31.0333 5 31.2333 5 31.4167 5.05ZM9.16667 5H15.6333L5 15.6333V9.16667C5 6.86667 6.86667 5 9.16667 5ZM8.58333 34.95L34.95 8.58333C34.9833 8.78333 35 8.96667 35 9.16667V17.3C35 17.3 34.9333 17.3667 34.9 17.4C34.9 17.4 17.3333 34.9667 17.3 35H9.16667C8.96667 35 8.76667 35 8.58333 34.95ZM30.8333 35H24.3667L35 24.3667V30.8333C35 33.1333 33.1333 35 30.8333 35Z"
        fill="black"
    />
    </g>
    <defs>
    <clipPath id="clip0_50_113">
        <rect width="40" height="40" fill="white" />
    </clipPath>
    </defs>
</svg>