<svg width="94" height="95" viewBox="0 0 94 95" fill="none" xmlns="http://www.w3.org/2000/svg">
<path fill-rule="evenodd" clip-rule="evenodd" d="M3.47476 50.9633C15.2984 44.7357 25.6629 38.3582 34.5163 39.2673C38.5973 39.6863 41.5677 43.3258 41.1454 47.3896C40.7232 51.4534 37.0671 54.4126 32.9861 53.9935C24.1327 53.0845 18.766 47.3242 3.47476 50.9633Z" fill="black" stroke="black" stroke-width="6.25" stroke-miterlimit="1.5" stroke-linecap="round" stroke-linejoin="round"/>
<path fill-rule="evenodd" clip-rule="evenodd" d="M43.3317 3.48804C49.5617 15.3112 55.9414 25.6751 55.0331 34.5291C54.6144 38.6103 50.9744 41.5815 46.9098 41.16C42.8452 40.7384 39.8852 37.0826 40.3039 33.0014C41.2122 24.1474 46.973 18.7794 43.3317 3.48804Z" fill="#FF4A19" stroke="black" stroke-width="4.17" stroke-miterlimit="1.5" stroke-linecap="round" stroke-linejoin="round"/>
<path fill-rule="evenodd" clip-rule="evenodd" d="M90.1017 45.1297C74.8104 48.7688 69.4437 43.0085 60.5903 42.0995C56.5094 41.6804 52.8533 44.6396 52.431 48.7034C52.0087 52.7672 54.9792 56.4067 59.0601 56.8257C67.9135 57.7348 78.278 51.3573 90.1017 45.1297Z" fill="black" stroke="black" stroke-width="6.25" stroke-miterlimit="1.5" stroke-linecap="round" stroke-linejoin="round"/>
<path fill-rule="evenodd" clip-rule="evenodd" d="M48.7668 90.4675C45.3454 76.0994 50.7584 71.0555 51.6119 62.7361C52.0053 58.9012 49.224 55.4662 45.4048 55.0701C41.5856 54.674 38.1654 57.4658 37.772 61.3006C36.9185 69.62 42.913 79.3582 48.7668 90.4675Z" fill="#E1DB00" stroke="black" stroke-width="4.16253" stroke-miterlimit="1.5" stroke-linecap="round" stroke-linejoin="round"/>
</svg>
